# xmcd CD database file
# Generated: Sam Nov 8 15:04:39 2003 by KSCD
# 
# Track frame offsets:
#       150
#       16375
#       34637
#       65325
#       90345
#       115087
#       129862
#       144787
#       156967
#       200927
#
# Disc length: 3153 seconds
#
# Revision: 16
# Processed by: cddbd v1.4PL0 Copyright (c) Steve Scherf et al.
# Submitted via: Kscd 1.3.3
#
DISCID=7a0c4f0a
DTITLE=Many - New Orleans Blues Vol.2
DYEAR=1900
DGENRE=
TTITLE0=Limehouse Blues
TTITLE1=Wabash Blues
TTITLE2=Blues At Dawn
TTITLE3=Royal Garden Blues
TTITLE4=2:19 Blues
TTITLE5=Melancholy Blues
TTITLE6=Perdido Street Blues
TTITLE7=How Long Blues
TTITLE8=Cresent City Blues
TTITLE9=Blues In Bolero
EXTD=
EXTT0=
EXTT1=
EXTT2=
EXTT3=
EXTT4=
EXTT5=
EXTT6=
EXTT7=
EXTT8=
EXTT9=
PLAYORDER=
